<svg width="227" height="52" viewBox="0 0 227 52" fill="none" xmlns="http://www.w3.org/2000/svg">
<g clip-path="url(#clip0_1996_72)">
<path d="M225.212 26.0859C224.291 23.8275 223.09 21.695 221.635 19.7394L208.086 0L194.367 19.6412C192.877 21.5826 191.642 23.7072 190.692 25.9632C189.485 28.3711 188.852 31.0268 188.842 33.7214V33.7214C188.842 43.7753 197.294 51.9754 207.817 52.0246C218.339 52.0737 226.914 43.9471 226.963 33.881C226.972 31.1874 226.36 28.5281 225.175 26.1105" fill="#234080"/>
<path d="M207.866 48.7101C199.291 48.7101 192.296 41.9461 192.321 33.7091C192.332 31.5006 192.852 29.3245 193.84 27.3503V27.2521V27.1662C194.673 25.1963 195.738 23.3335 197.013 21.6175L197.086 21.5316L205.563 9.41546C205.563 9.41546 207.253 6.54294 208.013 6.55522C208.772 6.56749 210.059 9.01036 210.059 9.01036L218.768 21.6912L218.842 21.7771C220.101 23.5031 221.15 25.3742 221.965 27.3503V27.4362V27.5344C222.94 29.5154 223.439 31.6971 223.423 33.9055C223.423 42.1426 216.355 48.8083 207.743 48.7715" fill="#7F287E"/>
<path d="M220.495 33.6847C220.308 36.9053 218.896 39.9314 216.549 42.14C214.202 44.3486 211.1 45.5717 207.881 45.5576C204.662 45.5434 201.57 44.2931 199.243 42.0639C196.916 39.8347 195.53 36.7963 195.371 33.5742C195.371 26.9698 201.067 16.8546 208.013 16.8915C214.958 16.9283 220.495 27.0803 220.495 33.6847Z" fill="#AF2028"/>
<path d="M217.041 33.6723C216.909 36.0093 215.888 38.2064 214.186 39.8102C212.485 41.414 210.234 42.302 207.899 42.291C205.563 42.28 203.321 41.3707 201.635 39.7509C199.949 38.1311 198.947 35.9245 198.838 33.5864C198.838 28.8111 202.954 23.2871 207.976 23.3116C212.999 23.3362 217.053 28.8848 217.041 33.6723Z" fill="#C95427"/>
<path d="M214.126 33.6602C214.184 34.9027 213.869 36.1342 213.222 37.1954C212.574 38.2565 211.624 39.0984 210.493 39.6119C209.362 40.1254 208.104 40.287 206.881 40.0756C205.658 39.8642 204.526 39.2897 203.632 38.4264C202.739 37.5631 202.124 36.4508 201.869 35.2335C201.613 34.0163 201.728 32.7502 202.199 31.5992C202.669 30.4482 203.474 29.4653 204.508 28.7778C205.543 28.0903 206.759 27.7299 208.001 27.7433C209.595 27.7169 211.135 28.3249 212.283 29.4339C213.431 30.5429 214.093 32.0626 214.126 33.6602" fill="#D6902C"/>
<path d="M211.418 33.6479C211.453 34.3471 211.277 35.0407 210.914 35.6387C210.55 36.2368 210.016 36.7119 209.381 37.0025C208.745 37.2932 208.037 37.386 207.348 37.2691C206.659 37.1521 206.021 36.8308 205.517 36.3465C205.012 35.8623 204.664 35.2375 204.518 34.5529C204.371 33.8683 204.433 33.1554 204.695 32.5065C204.958 31.8575 205.408 31.3023 205.989 30.9127C206.569 30.5231 207.253 30.3171 207.952 30.3211C208.851 30.3046 209.72 30.6452 210.369 31.2684C211.019 31.8916 211.396 32.747 211.418 33.6479" fill="#DDCA20"/>
<path d="M0.0734985 41.1237C10.4613 41.2464 18.9994 40.4608 25.504 29.3022C27.0107 26.712 28.5052 23.8763 29.6689 21.5684C29.5894 21.7417 29.5279 21.9227 29.4851 22.1086C28.1744 28.136 39.3952 28.5902 39.1992 30.0264C39.0032 31.4627 32.3393 30.8735 27.9172 29.3881H27.8559C27.381 29.2491 26.9558 28.9764 26.6309 28.6024V28.9462L26.8024 30.5543C26.9739 32.2606 27.1944 34.6544 27.1944 34.6544C27.1944 34.6544 50.6404 37.7601 51.1182 30.1124C51.4734 24.3305 40.1792 23.5694 40.3139 22.305C40.4487 21.0406 45.9365 21.0038 49.2685 21.5193C50.7629 21.7649 50.9712 22.5751 50.9712 22.5751L51.2162 22.0104C51.2162 22.0104 53.2496 17.3824 53.4211 16.9773L51.8287 33.1813C51.7228 33.7922 51.3902 34.3404 50.8977 34.7158H52.4779H59.7542L66.5406 25.5826L65.7811 33.2181C65.751 33.5278 65.6597 33.8284 65.5125 34.1024C65.3653 34.3764 65.1651 34.6183 64.9236 34.814H65.6954H73.7802L86.9732 17.186H81.4608H80.7626C80.852 17.3649 80.887 17.5662 80.863 17.7649C80.8391 17.9635 80.7573 18.1507 80.6278 18.3031L74.7234 26.2455L75.4707 18.5977C75.5851 18.0001 75.9169 17.4664 76.4017 17.1001H73.8782H67.5328L60.7587 26.221L61.506 18.6223C61.6116 18.0176 61.9393 17.4745 62.4247 17.1001H61.653H53.5681C53.1516 17.1001 32.8906 16.0198 29.8281 21.4211C31.0531 18.966 31.9351 17.0878 31.9841 17.0019L17.2844 16.9282C17.4436 16.9282 18.2521 17.4193 17.9704 18.1558C16.667 22.64 15.0669 27.0321 13.1807 31.3031C10.4 37.0972 4.23841 39.2823 0 40.694" fill="#234080"/>
<path d="M50.0034 4.81209L42.8741 9.64873C58.3455 10.1889 68.8803 5.30312 68.8803 5.30312C57.5738 10.7044 45.765 11.1341 40.7916 11.0482L32.2168 16.8055C32.2168 16.8055 58.86 16.2899 75.9484 0C68.2472 4.90779 58.9473 6.63266 50.0034 4.81209" fill="#AF2028"/>
<path d="M141.448 25.9141V17.1001C142.599 17.1001 143.665 17.1001 144.718 17.1001C144.865 17.1001 145.11 17.542 145.11 17.7875C145.11 20.2427 145.11 22.6978 145.11 25.153V35.3173H142.097C141.003 31.3694 139.106 27.6912 136.523 24.5146C135.941 23.787 135.27 23.1354 134.527 22.5751V35.305H130.852V17.186C132.077 17.186 133.302 16.9037 134.429 17.9348C136.87 20.088 139.005 22.5662 140.774 25.3003C140.909 25.5212 141.044 25.7422 141.191 25.9632H141.387" fill="#234080"/>
<path d="M120.158 35.3295H116.373C116.25 34.1019 116.14 32.8743 116.017 31.5485H108.949C108.814 32.7761 108.692 34.0037 108.569 35.3049H104.686C104.809 34.0773 104.907 32.8498 105.066 31.7327C105.599 27.533 106.899 23.4675 108.9 19.7393C108.892 19.7155 108.892 19.6895 108.9 19.6656C110.37 17.0755 110.823 16.8299 113.8 17.1123C114.075 17.1709 114.322 17.3226 114.498 17.5419C115.884 19.3445 116.979 21.3534 117.745 23.4957C119.102 27.0835 119.927 30.8512 120.194 34.6789C120.208 34.8955 120.208 35.1128 120.194 35.3295H120.158ZM115.527 28.4182C114.998 25.546 113.966 22.7905 112.477 20.2794C110.998 22.789 109.985 25.5465 109.488 28.4182H115.527Z" fill="#234080"/>
<path d="M94.3842 29.9405V35.305H90.6481V17.1001C92.755 17.1001 94.862 17.1001 96.9689 17.1001C97.6901 17.1076 98.4084 17.1899 99.1126 17.3456C102.469 18.0576 104.013 20.2059 104.013 23.8518C104.082 25.304 103.589 26.7271 102.638 27.8247C101.686 28.9223 100.349 29.6098 98.9044 29.7441C98.0924 29.8572 97.2742 29.9187 96.4544 29.9282C95.7807 29.9282 95.1192 29.9282 94.3107 29.9282L94.3842 29.9405ZM94.3107 26.8593C95.4377 26.8593 96.4544 26.9207 97.4589 26.8593C98.039 26.8688 98.6037 26.6716 99.0523 26.303C99.501 25.9343 99.8045 25.418 99.9089 24.8461C100.062 23.9565 100.062 23.0473 99.9089 22.1577C99.8178 21.6349 99.5479 21.1602 99.1455 20.8152C98.7432 20.4702 98.2334 20.2765 97.7039 20.2672C96.7466 20.1854 95.7851 20.1649 94.8252 20.2059C94.7057 20.236 94.5963 20.2973 94.5081 20.3836C94.4199 20.4698 94.356 20.5779 94.323 20.6969C94.323 22.7224 94.323 24.7479 94.323 26.8348" fill="#234080"/>
<path d="M174.522 21.2247C172.984 20.415 171.26 20.0295 169.524 20.1076C168.299 20.169 167.625 20.6109 167.393 21.458C167.32 21.6763 167.291 21.907 167.308 22.1366C167.325 22.3662 167.387 22.5901 167.491 22.7956C167.594 23.001 167.737 23.1838 167.912 23.3335C168.087 23.4832 168.289 23.5967 168.507 23.6676C169.291 23.999 170.137 24.1586 170.957 24.4532C171.9 24.7493 172.821 25.1102 173.714 25.5335C177.242 27.3871 176.837 32.2606 174.167 34.1265C172.376 35.3543 170.191 35.8666 168.042 35.5628C167.033 35.4649 166.036 35.2675 165.065 34.9735C163.326 34.4457 162.934 33.5987 163.497 31.8555C163.636 31.4729 163.8 31.0998 163.987 30.7384C165.692 31.8273 167.687 32.371 169.708 32.2974C170.122 32.2786 170.533 32.2127 170.933 32.101C171.263 32.0189 171.563 31.8414 171.794 31.5905C172.024 31.3395 172.177 31.0262 172.231 30.6893C172.333 30.3344 172.313 29.9557 172.176 29.6133C172.038 29.2708 171.791 28.9842 171.472 28.7988C170.677 28.4086 169.859 28.0683 169.022 27.78C168.079 27.424 167.074 27.1907 166.168 26.7488C165.314 26.3775 164.595 25.7518 164.109 24.9568C163.622 24.1617 163.391 23.2359 163.448 22.305C163.398 21.3184 163.646 20.3397 164.16 19.4965C164.673 18.6534 165.428 17.985 166.327 17.5788C168.487 16.6719 170.887 16.5078 173.15 17.1123H173.224C175.49 17.3579 175.968 18.8555 174.571 21.1756" fill="#234080"/>
<path d="M156.735 20.304V35.2927H153.036V20.3409H147.438V17.1492H162.321V20.304H156.735Z" fill="#234080"/>
<path d="M123.281 17.1001H126.528C127.079 17.1001 127.005 17.4806 127.005 17.8244V35.2927H123.33L123.281 17.1001Z" fill="#234080"/>
</g>
<defs>
<clipPath id="clip0_1996_72">
<rect width="227" height="52" fill="white"/>
</clipPath>
</defs>
</svg>
